<svg id="Layer_1" data-name="Layer 1" xmlns="http://www.w3.org/2000/svg" viewBox="0 0 310 60"><defs><style>.cls-1{fill:#fff;}</style></defs><title>logo_resize</title><path class="cls-1" d="M11.39,53.62a11.67,11.67,0,0,1-4.72-4.24A11,11,0,0,1,5,43.48a13.74,13.74,0,0,1,2.08-7.16,19.2,19.2,0,0,1,5.7-5.91,19.56,19.56,0,0,1,8.13-3.06A14.12,14.12,0,0,1,17.58,23a11.8,11.8,0,0,1-1.18-5.07,12.22,12.22,0,0,1,1.74-6.32,13.4,13.4,0,0,1,4.79-4.86,13.26,13.26,0,0,1,7-1.88,8.49,8.49,0,0,1,5.91,1.88,6.76,6.76,0,0,1,2.08,5.35,13.34,13.34,0,0,1-.83,4.59,10.53,10.53,0,0,1-2.15,3.68,3.32,3.32,0,0,1-2.43,1.39c-1,0-2-.83-3-2.57,3.68-3,5.49-5.77,5.49-8.41A3.31,3.31,0,0,0,33.76,8,4.82,4.82,0,0,0,30.5,7a7,7,0,0,0-4.65,1.67A9.92,9.92,0,0,0,22.92,13a15.23,15.23,0,0,0-1,5.63,14.27,14.27,0,0,0,1.11,5.63,10.11,10.11,0,0,0,3.54,4.52,18.22,18.22,0,0,0-12.92,8.62,12.73,12.73,0,0,0-1.88,6.39,10.55,10.55,0,0,0,.83,4.1,8.19,8.19,0,0,0,2.64,3.33,7.54,7.54,0,0,0,4.65,1.32,13.5,13.5,0,0,0,6.67-1.88,24.48,24.48,0,0,0,6.18-5A27.56,27.56,0,0,0,37.31,39L39,40a33.76,33.76,0,0,1-9,11.12,18.49,18.49,0,0,1-11.67,4.17A17.89,17.89,0,0,1,11.39,53.62Z"/><path class="cls-1" d="M37.52,51.12c-1.39-1.39-2-3.47-2-6.18a17.13,17.13,0,0,1,2-7.85A17.64,17.64,0,0,1,42.8,30.9a11,11,0,0,1,6.53-2.36,5.1,5.1,0,0,1,3.75,1.25,4.24,4.24,0,0,1,1.25,3.13,6.65,6.65,0,0,1-.9,3.47A2.64,2.64,0,0,1,51.2,38a2.31,2.31,0,0,1-1.95-1.18,4.62,4.62,0,0,0,1.39-1.74,6.45,6.45,0,0,0,.63-2.92c0-.69-.42-1-1.18-1-1.32,0-2.78.76-4.31,2.36a20.5,20.5,0,0,0-3.89,5.77,14.82,14.82,0,0,0-1.6,6.11,5.73,5.73,0,0,0,1,3.33A4,4,0,0,0,44.67,50a10.91,10.91,0,0,0,5-1.39,18.73,18.73,0,0,0,8.41-9.73L59.33,40a21.87,21.87,0,0,1-4.17,6.74,22.11,22.11,0,0,1-5.91,4.72,14,14,0,0,1-6.39,1.74A7.28,7.28,0,0,1,37.52,51.12Z"/><path class="cls-1" d="M58,49.66a7.79,7.79,0,0,1-1.39-4.59,21.7,21.7,0,0,1,1-5.63A33.7,33.7,0,0,1,60,33.54c.9-1.67,1.67-2.5,2.36-2.5a2.8,2.8,0,0,1,1.32.49,5.31,5.31,0,0,1,1.6,1.18,25.87,25.87,0,0,0-2.71,5.56,17.09,17.09,0,0,0-1.39,6.25,11.35,11.35,0,0,0,.35,2.5A1.49,1.49,0,0,0,63,48.27c1.53,0,3.4-1.74,5.56-5.14a89.81,89.81,0,0,0,5.56-10.49c2.5.42,3.75,1.11,3.75,2.15,0,.07-.28.69-.76,1.81-.9,2-1.6,4-2.22,5.7a13.94,13.94,0,0,0-1,4.59c0,1.46.56,2.15,1.67,2.15a5.67,5.67,0,0,0,3.13-1.25,17.11,17.11,0,0,0,3.75-3.47A23.77,23.77,0,0,0,85.87,39l1,.76a22.69,22.69,0,0,1-3.54,6,19.06,19.06,0,0,1-4.72,4.24,9.24,9.24,0,0,1-4.86,1.53q-2.71,0-3.54-1.88a13,13,0,0,1-.76-5.07,31.58,31.58,0,0,1-4,5.14,5.58,5.58,0,0,1-4,1.88A4.18,4.18,0,0,1,58,49.66Z"/><path class="cls-1" d="M84.13,51.19a5.47,5.47,0,0,1-1.46-4.1A16.59,16.59,0,0,1,85.31,39a25.58,25.58,0,0,1,6.81-7.64,13.67,13.67,0,0,1,8.27-3.13A7.64,7.64,0,0,1,105,29.58a4.3,4.3,0,0,1,1.88,3.61c0,1.95-1.18,2.92-3.54,3,1.53.49,2.22,1.11,2.22,1.88a3.43,3.43,0,0,1-.42,1.32c-.28.56-.63,1.18-1,1.81-.69,1.11-1.18,2-1.6,2.85a5,5,0,0,0-.56,2.29,2.44,2.44,0,0,0,.49,1.6,1.57,1.57,0,0,0,1.39.63c1.18,0,2.64-.83,4.45-2.43a26,26,0,0,0,5.28-7.3L114.77,40A24.34,24.34,0,0,1,109,48.34c-2.29,2.08-4.59,3.13-6.95,3.13a4.61,4.61,0,0,1-3.82-1.67A5.76,5.76,0,0,1,96.92,46,36.56,36.56,0,0,1,92.12,51a6.86,6.86,0,0,1-4.24,1.6A4.77,4.77,0,0,1,84.13,51.19Zm10.07-4.86a90.4,90.4,0,0,0,6.6-8.2l1.25-1.67c.14-.21.28-.35.49-.35l.28.07a8,8,0,0,0,.28-2.29c0-2.15-.9-3.27-2.64-3.27s-3.75,1-5.77,2.92a24.71,24.71,0,0,0-5,7,15.56,15.56,0,0,0-2,6.95A2.75,2.75,0,0,0,88,49a1.22,1.22,0,0,0,1.11.49C90.53,49.45,92.26,48.41,94.21,46.33Z"/><path class="cls-1" d="M112.69,50.15a5.2,5.2,0,0,1-1.6-4.17c0-2.36.9-5,2.71-8.13A26.49,26.49,0,0,1,120.61,30a13.47,13.47,0,0,1,8.27-3.27c2,0,3.06.69,3.06,2a1.56,1.56,0,0,1-.76,1.46c-.35-.49-1-.69-2.22-.69a8.42,8.42,0,0,0-6,2.78,21.94,21.94,0,0,0-4.65,6.53,15.54,15.54,0,0,0-1.81,6.25,3.23,3.23,0,0,0,.49,1.95,1.71,1.71,0,0,0,1.53.69c1.18,0,2.5-.69,4.1-2a24.77,24.77,0,0,0,4.79-5.77,42.88,42.88,0,0,0,4.38-8.75c3.27-8.34,6-14.8,8.27-19.45s4.24-6.95,5.91-6.95a1.87,1.87,0,0,1,1.25.56,1.9,1.9,0,0,1,.56,1.32,9.82,9.82,0,0,1-1,3.27c-.63,1.46-1.74,3.75-3.27,6.88C140.41,23,138,28.33,136.24,33a34.48,34.48,0,0,0-2.71,12.51,4.56,4.56,0,0,0,.28,2,1,1,0,0,0,1,.56c1.39,0,3.06-.83,4.86-2.5a21.22,21.22,0,0,0,4.79-6.74l1.18,1a22.8,22.8,0,0,1-5.7,8.41c-2.43,2.15-4.79,3.27-7.16,3.27a3.87,3.87,0,0,1-3.47-1.53,6.69,6.69,0,0,1-1-4,21.25,21.25,0,0,1,.49-4A32.15,32.15,0,0,1,122.42,49c-2.15,1.74-4.17,2.64-5.91,2.64A5.73,5.73,0,0,1,112.69,50.15Z"/><path class="cls-1" d="M143.47,50.08A6.22,6.22,0,0,1,142,45.77a13.94,13.94,0,0,1,1.11-5.35A15,15,0,0,1,146,35.7a5,5,0,0,1,3.61-1.88,6,6,0,0,1,1.88.49,8.7,8.7,0,0,1,2.08-4.72A5.62,5.62,0,0,1,158,27.71c3.27,0,4.93,1.67,4.93,5.07a14.73,14.73,0,0,1-1,5.14A27.07,27.07,0,0,1,159,43.34a5.07,5.07,0,0,0,1.81.35,7.08,7.08,0,0,0,5.07-2,15.31,15.31,0,0,0,3.33-4.72,49.86,49.86,0,0,0,2.43-6.6,2.58,2.58,0,0,1-.56-1.53,5.08,5.08,0,0,1,.56-2.29,5.25,5.25,0,0,1,1.25-1.67,2.1,2.1,0,0,1,1.25-.63c.9,0,1.39.63,1.39,1.95a7.24,7.24,0,0,1-.35,1.18,7.44,7.44,0,0,0-.35,1.11,1.07,1.07,0,0,0,.49.83c.35.28.83.63,1.53,1.11a16.85,16.85,0,0,1,3.47,2.78,5.38,5.38,0,0,1,1.25,3.68,7.82,7.82,0,0,1-.49,2.78c-.35.9-.76,2.08-1.25,3.33a11,11,0,0,0-1.25,4,1.43,1.43,0,0,0,.42,1.18,1.86,1.86,0,0,0,1.18.28,7,7,0,0,0,4-1.53,18,18,0,0,0,4-3.68,18.88,18.88,0,0,0,2.64-4l1.25.9a25.29,25.29,0,0,1-5.77,8,11,11,0,0,1-7.57,3.4,5.56,5.56,0,0,1-3.75-1.25,4,4,0,0,1-1.46-3.2,9.07,9.07,0,0,1,.42-2.64,25.41,25.41,0,0,1,1.32-3.4c.49-1.25.9-2.22,1.11-3a5.36,5.36,0,0,0,.35-2c0-1.74-1.11-3.13-3.33-4.31a59.64,59.64,0,0,1-2.85,7.3,16.32,16.32,0,0,1-3.75,5,9.26,9.26,0,0,1-9.1,1.6,22.5,22.5,0,0,1-4.86,4.52,9.24,9.24,0,0,1-4.93,1.74A5.67,5.67,0,0,1,143.47,50.08Zm8.34-2.78A24.67,24.67,0,0,0,155.28,44c-2.43-2-3.75-5.07-3.82-9.24a21.53,21.53,0,0,0-2.92,5,14.71,14.71,0,0,0-1.6,5.49,4.94,4.94,0,0,0,.56,2.5,1.63,1.63,0,0,0,1.46.83A5.37,5.37,0,0,0,151.8,47.3Zm7.57-9.94a12.18,12.18,0,0,0,.76-4.24,4,4,0,0,0-.49-2.15,1.44,1.44,0,0,0-1.11-.76,3.33,3.33,0,0,0-2.5,1.6,6.84,6.84,0,0,0-1.18,4,8.29,8.29,0,0,0,.63,3.06,11.24,11.24,0,0,0,1.6,2.85A21.62,21.62,0,0,0,159.38,37.36Z"/><path class="cls-1" d="M191.82,49.52a2.26,2.26,0,0,1-.69-1.67,3.08,3.08,0,0,1,1.32-2.22A4,4,0,0,1,195,44.52a2.18,2.18,0,0,1,1.46.49,1.79,1.79,0,0,1,.63,1.46,3.94,3.94,0,0,1-.42,1.46,5.09,5.09,0,0,1-1.11,1.6,2.3,2.3,0,0,1-1.74.69A2.11,2.11,0,0,1,191.82,49.52Z"/><path class="cls-1" d="M206.2,51.12c-1.39-1.39-2-3.47-2-6.18a17.13,17.13,0,0,1,2-7.85,17.64,17.64,0,0,1,5.28-6.18,11,11,0,0,1,6.6-2.36,5.1,5.1,0,0,1,3.75,1.25,4.24,4.24,0,0,1,1.25,3.13,6.65,6.65,0,0,1-.9,3.47A2.64,2.64,0,0,1,220,38,2.31,2.31,0,0,1,218,36.81a4.62,4.62,0,0,0,1.39-1.74,6.45,6.45,0,0,0,.63-2.92c0-.69-.42-1-1.18-1-1.32,0-2.78.76-4.31,2.36a20.5,20.5,0,0,0-3.89,5.77,14.82,14.82,0,0,0-1.6,6.11,5.73,5.73,0,0,0,1,3.33A4,4,0,0,0,213.5,50a10.91,10.91,0,0,0,5-1.39,18.73,18.73,0,0,0,8.41-9.73L228.16,40A21.87,21.87,0,0,1,224,46.74a22.11,22.11,0,0,1-5.91,4.72,14,14,0,0,1-6.39,1.74A7.17,7.17,0,0,1,206.2,51.12Z"/><path class="cls-1" d="M225.73,50a7.2,7.2,0,0,1-1.18-4.17,14.27,14.27,0,0,1,1.11-5.42,15,15,0,0,1,2.85-4.72A5,5,0,0,1,232,33.82a5.22,5.22,0,0,1,1.95.49,8.64,8.64,0,0,1,2-4.72,5.87,5.87,0,0,1,4.65-1.88,4.61,4.61,0,0,1,3.68,1.39,5.71,5.71,0,0,1,1.18,3.68,13.62,13.62,0,0,1-1.18,5,31.56,31.56,0,0,1-3,5.63,3.54,3.54,0,0,0,1.74.35,7.6,7.6,0,0,0,3.75-1.18A7.35,7.35,0,0,0,249.91,39l1.11.83a11,11,0,0,1-3.54,4.59,7.82,7.82,0,0,1-4.59,1.6,10.62,10.62,0,0,1-3.13-.56A23.69,23.69,0,0,1,234.69,50a9.75,9.75,0,0,1-5.35,1.74A4,4,0,0,1,225.73,50Zm8.75-2.71a20,20,0,0,0,3.27-3.2Q234.2,41,234,34.93a6.23,6.23,0,0,0-1.81,2.29,24.3,24.3,0,0,0-1.81,4.31,14.82,14.82,0,0,0-.76,4.1c0,1.95.69,2.85,2.15,2.85A4.83,4.83,0,0,0,234.48,47.3Zm7.43-10a12,12,0,0,0,1-4.52C243,31,242.4,30,241.22,30a2.4,2.4,0,0,0-1.67.83A7.31,7.31,0,0,0,238.09,33a8.17,8.17,0,0,0-.56,3,11.63,11.63,0,0,0,.49,3.27,7.77,7.77,0,0,0,1.32,2.85A24.71,24.71,0,0,0,241.92,37.3Z"/><path class="cls-1" d="M277.77,50.22a5,5,0,0,1-1.25-3.47,8.84,8.84,0,0,1,.28-2.22q.31-1.25.63-2.29a14.27,14.27,0,0,0,.83-3.75q0-1.88-1.46-1.88c-.9,0-2,.69-3.2,2a65.67,65.67,0,0,0-4.86,6.53c-.49.76-1.25,2-2.22,3.82l-1.18,2.15a7.78,7.78,0,0,1-2.43-.42c-.9-.28-1.32-.69-1.32-1.18a19,19,0,0,1,1.32-4c.83-2.15,1.53-4,2-5.7a14.82,14.82,0,0,0,.76-4.1c0-1.25-.42-1.88-1.32-1.88-1.11,0-2.57.9-4.38,2.64a39.92,39.92,0,0,0-5.28,6.74,40.58,40.58,0,0,0-4.1,8.13A6.88,6.88,0,0,1,248,50.7c-1-.42-1.53-.76-1.53-1l4-16c.14-.49.56-.83,1.32-1.25a5.2,5.2,0,0,1,2.08-.56,2.29,2.29,0,0,1,1.53.56A1.94,1.94,0,0,1,256,34a22.75,22.75,0,0,1-.9,4.52,40.37,40.37,0,0,1,6.18-6.88c2.15-1.81,4.1-2.71,6-2.71a3.29,3.29,0,0,1,3.06,1.53,6.83,6.83,0,0,1,.9,3.75,7.81,7.81,0,0,1-.28,2.22,21.78,21.78,0,0,1-.83,2.78c2.92-4.31,5.91-6.46,9-6.46A3.78,3.78,0,0,1,282.42,34a5.31,5.31,0,0,1,1,3.33A18.93,18.93,0,0,1,282.21,43c-.07.14-.21.69-.49,1.6a8.06,8.06,0,0,0-.42,2.22,1.45,1.45,0,0,0,1.6,1.67c1.53,0,3-1,4.38-2.85a39.9,39.9,0,0,0,4-6.88l1,1.32a27.58,27.58,0,0,1-4.65,8.06,8.51,8.51,0,0,1-6.53,3.4A4,4,0,0,1,277.77,50.22Z"/><path class="cls-1" d="M305,11a6,6,0,0,1-.49,2.5,6.75,6.75,0,0,1-1.32,2,5.64,5.64,0,0,1-2,1.32,6.67,6.67,0,0,1-5,0,6.75,6.75,0,0,1-2-1.32,6.42,6.42,0,0,1-1.32-1.95,7.28,7.28,0,0,1-.49-2.5,6,6,0,0,1,.49-2.5,6.75,6.75,0,0,1,1.32-2,5.64,5.64,0,0,1,2-1.32,6.67,6.67,0,0,1,5,0,5.64,5.64,0,0,1,2,1.32,6.42,6.42,0,0,1,1.32,1.95A7.28,7.28,0,0,1,305,11Zm-1.46.14A6.55,6.55,0,0,0,303.19,9a3.56,3.56,0,0,0-1-1.6,5.94,5.94,0,0,0-1.53-1A6,6,0,0,0,298.68,6a4.75,4.75,0,0,0-2,.42,5,5,0,0,0-1.53,1,4.71,4.71,0,0,0-1,1.6,6,6,0,0,0-.35,1.95,6.55,6.55,0,0,0,.35,2.08,3.56,3.56,0,0,0,1,1.6,5.94,5.94,0,0,0,1.53,1,6,6,0,0,0,1.95.35,4.75,4.75,0,0,0,2-.42,5,5,0,0,0,1.53-1,4.12,4.12,0,0,0,1-1.6A6.38,6.38,0,0,0,303.54,11.1ZM301.6,14v.14c0,.07-.07.07-.14.07a.53.53,0,0,0-.28.07h-.9c-.14,0-.21,0-.28-.07a.15.15,0,0,1-.14-.14.26.26,0,0,1-.07-.21l-.35-1.11a1.55,1.55,0,0,0-.49-.83,1.34,1.34,0,0,0-.83-.21h-.42V14c0,.14-.07.21-.14.21s-.28.07-.63.07a1.74,1.74,0,0,1-.69-.07c-.14-.07-.14-.14-.14-.21V8.25a.79.79,0,0,1,.21-.56.68.68,0,0,1,.56-.21h1.88a4.83,4.83,0,0,1,1.11.14,2.32,2.32,0,0,1,.83.35,1.78,1.78,0,0,1,.76,1.46,1.63,1.63,0,0,1-.42,1.18,2.46,2.46,0,0,1-1.11.63,1.44,1.44,0,0,1,.69.42,2.24,2.24,0,0,1,.56.9l.42,1Zm-2-4.45a.63.63,0,0,0-.07-.35c0-.14-.07-.21-.21-.28a1.52,1.52,0,0,0-.35-.21,1.35,1.35,0,0,0-.56-.07h-.69v1.81h.69c.49,0,.76-.07.9-.28A.68.68,0,0,0,299.58,9.57Z"/></svg>