<svg xmlns="http://www.w3.org/2000/svg" viewBox="0 0 32.28 32.28"><defs><style>.cls-1{fill:none;}.cls-2{fill:#e1261a;}.cls-3{fill:#1f191a;}</style></defs><g id="Layer_2" data-name="Layer 2"><rect class="cls-1" width="32.28" height="32.28"/><path class="cls-2" d="M16.09,28.27A12.13,12.13,0,1,1,16.19,4a12.13,12.13,0,1,1-.1,24.26Zm0-14.75c-.63-.74-1.1-1.37-1.65-1.92-2.09-2.11-1.59-2.14-3.86.06-.66.65-.62,1.14.05,1.74.93.84,1.82,1.73,3,2.85-.76.62-1.41,1.07-2,1.62-2.13,2.11-2.18,1.58,0,3.85.62.64,1.14.7,1.74,0,.83-1,1.68-2,2.63-3.06.85.92,1.37,1.52,1.92,2.07,2,2,1.57,2.06,3.77-.07.72-.69.66-1.21-.05-1.83-.94-.82-1.84-1.7-2.9-2.69.8-.72,1.41-1.21,2-1.77,2.08-2.07,2.12-1.55-.11-3.85-.58-.59-1.07-.64-1.65,0C18.09,11.44,17.19,12.34,16.05,13.52Z"/><path class="cls-3" d="M16.16,28.49h-.07a12.23,12.23,0,0,1-12.3-12.4A12.26,12.26,0,0,1,16.12,3.8h.07A12.23,12.23,0,0,1,28.5,16.19a12.27,12.27,0,0,1-12.34,12.3Zm0-24.26a11.91,11.91,0,0,0,0,23.82h.07a11.83,11.83,0,0,0,11.9-11.86,11.8,11.8,0,0,0-11.87-12Zm3.62,18.25h0c-.41,0-.75-.35-1.41-1l-.54-.55c-.37-.37-.71-.75-1.15-1.23L16,19l-.67.78c-.63.72-1.22,1.4-1.8,2.09a1.34,1.34,0,0,1-1,.58,1.48,1.48,0,0,1-1.08-.57l-.6-.61c-.75-.76-1.1-1.1-1.09-1.53s.34-.73,1-1.38l.66-.64a12.34,12.34,0,0,1,1.26-1.06l.52-.41-.86-.83c-.71-.68-1.32-1.28-2-1.85a1.43,1.43,0,0,1-.59-1,1.38,1.38,0,0,1,.54-1l.6-.59c.77-.77,1.13-1.12,1.55-1.12h0c.42,0,.75.35,1.42,1l.58.6c.38.37.72.79,1.09,1.23q.19.25.42.51l.84-.86c.7-.71,1.3-1.33,1.89-2a1.33,1.33,0,0,1,.95-.53h0a1.42,1.42,0,0,1,1,.53l.62.63c.77.77,1.12,1.12,1.12,1.55s-.34.73-1,1.37l-.63.61c-.37.37-.77.72-1.23,1.12l-.56.5.78.72c.67.64,1.3,1.23,1.94,1.8a1.5,1.5,0,0,1,.64,1.06,1.5,1.5,0,0,1-.58,1.09l-.56.55C20.52,22.13,20.17,22.48,19.74,22.48ZM16,18.33l.17.18.78.86c.43.47.78.85,1.13,1.21l.55.56c.54.56.87.9,1.11.9h0c.25,0,.6-.35,1.24-1,.17-.16.35-.35.57-.55a1.15,1.15,0,0,0,.44-.77c0-.22-.16-.46-.48-.74-.66-.58-1.29-1.17-2-1.81-.31-.28-.62-.58-.95-.89l-.18-.16L18.6,16l.75-.66c.45-.4.84-.74,1.2-1.1l.63-.62c.55-.52.87-.83.87-1.06s-.35-.59-1-1.23l-.62-.64a1,1,0,0,0-.69-.39,1,1,0,0,0-.64.38c-.59.64-1.2,1.26-1.9,2l-1,1-.17.17-.15-.18L15.3,13c-.37-.45-.7-.84-1.06-1.21l-.58-.6c-.55-.57-.88-.91-1.11-.92h0c-.24,0-.6.36-1.24,1l-.6.59a1.07,1.07,0,0,0-.42.71,1.11,1.11,0,0,0,.45.71c.65.58,1.26,1.17,2,1.86l1,1,.18.17-.2.16L13,17a13.17,13.17,0,0,0-1.22,1c-.24.25-.46.46-.66.64-.55.53-.88.85-.89,1.08s.35.59,1,1.22c.18.17.38.38.6.61a1.17,1.17,0,0,0,.76.44,1,1,0,0,0,.65-.43c.58-.69,1.17-1.38,1.8-2.1Z"/></g></svg>