<?xml version="1.0" encoding="utf-8"?>
<!-- Generator: Adobe Illustrator 25.3.0, SVG Export Plug-In . SVG Version: 6.00 Build 0)  -->
<svg version="1.1" id="Layer_1" xmlns="http://www.w3.org/2000/svg" xmlns:xlink="http://www.w3.org/1999/xlink" x="0px" y="0px"
	 viewBox="0 0 45 45" style="enable-background:new 0 0 45 45;" xml:space="preserve">
<style type="text/css">
	.st0{fill:#2A3747;}
	.st1{fill:none;}
</style>
<g>
	<path class="st0" d="M20.4,29.5c0.4,0.8,0.9,1.5,1.6,2l0.5,0.3v-2.8h-2.4L20.4,29.5z"/>
	<path class="st0" d="M19.7,20.9c-0.2,0.9-0.4,1.7-0.4,2.6v0.4h3.2v-3.2h-2.7L19.7,20.9z"/>
	<path class="st0" d="M19.3,25.2c0,0.9,0.2,1.8,0.4,2.6l0.1,0.2h2.7v-3.2h-3.2L19.3,25.2z"/>
	<path class="st0" d="M19.2,29.3l-0.1-0.2h-1.9l0.6,0.6c0.4,0.4,0.9,0.8,1.5,1.1l1.1,0.6l-0.6-1.1C19.5,30,19.3,29.6,19.2,29.3z"/>
	<path class="st0" d="M19.2,19.5c0.1-0.4,0.3-0.7,0.5-1.1l0.6-1.1L19.2,18c-0.5,0.3-1,0.7-1.5,1.1l-0.6,0.6h1.9L19.2,19.5z"/>
	<path class="st0" d="M18.4,23.6c0-0.8,0.2-1.7,0.3-2.5l0.1-0.4h-2.2l-0.1,0.2c-0.4,0.8-0.7,1.7-0.8,2.7v0.4h2.8L18.4,23.6z"/>
	<path class="st0" d="M18.7,27.7c-0.2-0.8-0.3-1.6-0.3-2.5v-0.3h-2.8v0.4c0.1,0.9,0.4,1.8,0.8,2.7l0.1,0.2h2.2L18.7,27.7z"/>
	<path class="st0" d="M22.5,19.7v-2.8L22,17.2c-0.7,0.5-1.3,1.2-1.6,2l-0.2,0.5L22.5,19.7z"/>
	<path class="st0" d="M27.7,25.2c0,0.8-0.2,1.7-0.3,2.5l-0.1,0.4h2.2l0.1-0.2c0.4-0.8,0.7-1.7,0.8-2.7l0-0.4h-2.8L27.7,25.2z"/>
	<path class="st0" d="M27.3,21.1c0.2,0.8,0.3,1.6,0.3,2.5v0.3h2.8l0-0.4c-0.1-0.9-0.4-1.8-0.8-2.7l-0.1-0.2h-2.2L27.3,21.1z"/>
	<path class="st0" d="M26.8,19.5l0.1,0.2h2l-0.6-0.6c-0.4-0.4-0.9-0.8-1.5-1.1l-1.1-0.6l0.6,1.1C26.5,18.8,26.7,19.1,26.8,19.5z"/>
	<path class="st0" d="M26.8,29.3c-0.1,0.4-0.3,0.7-0.5,1.1l-0.6,1.1l1.1-0.6c0.5-0.3,1-0.7,1.5-1.1l0.6-0.6h-1.9L26.8,29.3z"/>
	<path class="st0" d="M35.7,4.1H7.6v40.6h28.2c1.5,0,2.7-1.2,2.7-2.7V6.8C38.5,5.3,37.2,4.1,35.7,4.1z M23,16c4.7,0,8.4,3.8,8.4,8.4
		s-3.8,8.4-8.4,8.4s-8.4-3.8-8.4-8.4C14.6,19.8,18.3,16,23,16z"/>
	<path class="st0" d="M25.6,19.2c-0.3-0.8-0.9-1.5-1.6-2l-0.5-0.3v2.8h2.4L25.6,19.2z"/>
	<path class="st0" d="M26.7,23.5c0-0.9-0.2-1.8-0.4-2.6l-0.1-0.2h-2.7v3.2h3.2L26.7,23.5z"/>
	<path class="st0" d="M25.6,29.5l0.2-0.5h-2.4v2.8l0.5-0.3C24.7,31,25.3,30.4,25.6,29.5z"/>
	<path class="st0" d="M26.3,27.8c0.2-0.9,0.4-1.7,0.4-2.6v-0.4h-3.2v3.2h2.7L26.3,27.8z"/>
	<rect class="st1" width="45" height="45"/>
</g>
</svg>
