<?xml version="1.0" encoding="utf-8"?>
<!-- Generator: Adobe Illustrator 25.3.0, SVG Export Plug-In . SVG Version: 6.00 Build 0)  -->
<svg version="1.1" id="Layer_1" xmlns="http://www.w3.org/2000/svg" xmlns:xlink="http://www.w3.org/1999/xlink" x="0px" y="0px"
	 viewBox="0 0 45 45" style="enable-background:new 0 0 45 45;" xml:space="preserve">
<style type="text/css">
	.st0{fill:#2A3747;}
	.st1{fill:#333333;}
	.st2{fill:none;}
</style>
<g id="Layer_2_1_">
	<path class="st0" d="M35.5,6c-7.4-3.3-13,5.1-13,5.1S16.9,2.6,9.5,6c-6,2.7-9,9.2-6.7,16.8h11.5l4.2-10.6l6.5,16.2l2.2-5.7h14.9
		C44.5,15.2,41.5,8.6,35.5,6"/>
	<path class="st1" d="M25.1,34.7l-6.6-16.3l-2.6,6.6H3.7c0.5,1.1,1,2.1,1.7,3.1c6.1,9.7,17.2,16.2,17.2,16.2s11-6.5,17.2-16.2
		c0.6-1,1.2-2,1.7-3.1H28.9L25.1,34.7z"/>
	<rect class="st2" width="45" height="45"/>
</g>
</svg>
