<?xml version="1.0" encoding="utf-8"?>
<!-- Generator: Adobe Illustrator 25.3.0, SVG Export Plug-In . SVG Version: 6.00 Build 0)  -->
<svg version="1.1" id="Layer_1" xmlns="http://www.w3.org/2000/svg" xmlns:xlink="http://www.w3.org/1999/xlink" x="0px" y="0px"
	 viewBox="0 0 49.2 45" style="enable-background:new 0 0 49.2 45;" xml:space="preserve">
<style type="text/css">
	.st0{fill:#2A3747;}
	.st1{fill:#333333;}
	.st2{fill:none;}
</style>
<g id="Layer_2_1_">
	<path class="st0" d="M36.9,10l-2.7,1.6c-0.1,0.1-0.3,0.2-0.5,0.1l-15.2,0.6c-0.4,0-0.8,0.3-0.9,0.8L15,22.9
		c-0.1,0.5,0.2,1.1,0.7,1.2c0,0,0,0,0,0l2.5,0.6c0.5,0.1,1.1-0.2,1.2-0.7l1-3.8c0.1-0.5,0.7-0.9,1.2-0.7l17.1,3.9
		c0.2,0.1,0.5,0,0.7-0.1l3.9-2.2c0.5-0.3,0.7-0.9,0.4-1.4c0,0,0,0,0,0l-5.4-9.2C38.1,9.9,37.5,9.7,36.9,10C36.9,10,36.9,10,36.9,10"
		/>
	<path class="st0" d="M21.2,20.3L21.2,20.3l-1,3.8c-0.1,0.4-0.3,0.7-0.6,0.9c-0.4,0.4-1,0.5-1.5,0.4l-2.5-0.6
		c-0.5-0.1-0.9-0.4-1.1-0.8c-0.3-0.4-0.3-0.9-0.2-1.4l1-3.8l0,0l-1-0.2c-0.5-0.1-0.9,0.1-1.1,0.5L9.8,26c-0.1,0.2-0.2,0.3-0.4,0.4
		l-3.3,2c-0.5,0.3-0.7,0.9-0.4,1.4c0,0,0,0,0,0.1l5.7,9.5c0.3,0.5,0.9,0.6,1.3,0.4l3.8-1.8c0.2-0.1,0.5-0.1,0.7-0.1l0.5,0.1l0,0
		c0.2-0.4,0.6-0.7,1.1-0.8c0.3-0.1,0.6-0.1,0.8,0l7.2,1.7c0.5,0.1,0.9,0.4,1.1,0.8c0.1,0.2,0.2,0.4,0.2,0.7l0,0l0.6,0.2
		c0.6,0,1.1-0.3,1.5-0.7c3.4-4.2,6.4-8.6,9-13.4c0.3-0.9-0.1-1.8-0.9-2.2C35.3,23.4,27.2,21.8,21.2,20.3"/>
	<path class="st0" d="M19.5,37.9c-0.5-0.1-1.1,0.2-1.2,0.7c0,0,0,0.1,0,0.1l0,0c-0.1,0.5,0.2,1,0.7,1.2l7.2,1.7
		c0.5,0.1,1-0.2,1.2-0.7c0.2-0.5-0.1-1.1-0.6-1.3c0,0-0.1,0-0.1,0L19.5,37.9"/>
	<path class="st1" d="M3.3,29l-1.4,0.8c-0.4,0.2-0.5,0.7-0.3,1.1l7,11.8c0.2,0.4,0.7,0.5,1.1,0.3c0,0,0,0,0,0l1.4-0.8
		c0.4-0.2,0.5-0.7,0.3-1.1l-7-11.8C4.2,28.9,3.7,28.8,3.3,29C3.3,29,3.3,29,3.3,29"/>
	<path class="st1" d="M39.9,6.8l-1.4,0.8c-0.4,0.2-0.5,0.7-0.3,1.1c0,0,0,0,0,0l7,11.8c0.2,0.4,0.7,0.5,1.1,0.3c0,0,0,0,0,0l1.4-0.8
		c0.4-0.2,0.5-0.7,0.3-1.1L41,7.1C40.8,6.7,40.3,6.6,39.9,6.8C39.9,6.8,39.9,6.8,39.9,6.8"/>
	<rect class="st2" width="45" height="45"/>
</g>
</svg>
