<?xml version="1.0" encoding="utf-8"?>
<!-- Generator: Adobe Illustrator 25.3.0, SVG Export Plug-In . SVG Version: 6.00 Build 0)  -->
<svg version="1.1" id="Layer_1" xmlns="http://www.w3.org/2000/svg" xmlns:xlink="http://www.w3.org/1999/xlink" x="0px" y="0px"
	 viewBox="0 0 32.3 32.3" style="enable-background:new 0 0 32.3 32.3;" xml:space="preserve">
<style type="text/css">
	.st0{fill:#FFFFFF;}
	.st1{fill:#FBE80C;stroke:#1F191A;stroke-width:0.44;stroke-miterlimit:10;}
	.st2{fill:none;}
</style>
<g>
	<circle class="st0" cx="16.1" cy="16.1" r="16.1"/>
	<ellipse cx="16.8" cy="16.6" rx="8.3" ry="8.6"/>
	<path class="st1" d="M16.2,28.4C9.4,28.6,3.8,23.3,3.6,16.5S8.7,4.1,15.4,3.9c0.2,0,0.5,0,0.7,0C22.9,3.7,28.5,9,28.7,15.8
		s-5.1,12.4-11.8,12.6C16.6,28.4,16.4,28.4,16.2,28.4z M18.2,13.7L18.2,13.7c0-0.3,0-0.6,0-0.9c0.1-3.4,0.6-2.9-3-3
		c-0.9,0-1.3,0.3-1.2,1.2c0.1,1.9,0.2,3.8,0.3,5.7c0,0.8,0.3,1.1,1.1,1.1c0.5,0.1,1,0.1,1.6,0c0.5-0.2,0.8-0.5,1-1
		C18.1,15.7,18.2,14.7,18.2,13.7L18.2,13.7z M18.5,20.9c0-1.3-1-2.3-2.3-2.4s-2.3,1-2.4,2.3s1,2.3,2.3,2.4c0,0,0.1,0,0.1,0
		C17.5,23.1,18.4,22.1,18.5,20.9L18.5,20.9z"/>
	<rect class="st2" width="32.3" height="32.3"/>
</g>
</svg>
