<?xml version="1.0" encoding="utf-8"?>
<!-- Generator: Adobe Illustrator 25.3.0, SVG Export Plug-In . SVG Version: 6.00 Build 0)  -->
<svg version="1.1" id="Layer_1" xmlns="http://www.w3.org/2000/svg" xmlns:xlink="http://www.w3.org/1999/xlink" x="0px" y="0px"
	 viewBox="0 0 45 45" style="enable-background:new 0 0 45 45;" xml:space="preserve">
<style type="text/css">
	.st0{fill:#333333;}
	.st1{fill:#2A3747;}
	.st2{fill:none;}
</style>
<g id="Layer_2_1_">
	<path class="st0" d="M23.5,19.4c0.2-0.5,0.4-0.9,0.6-1.4c0.6-1.2,0.1-2.6-1.1-3.2c-0.1-0.1-0.2-0.1-0.3-0.1c-2.6-1-5.3-2.2-7.9-3.1
		c-1.1-0.6-2.4-0.2-3,0.9c-0.1,0.1-0.1,0.3-0.2,0.4c-1.2,2.8-2.2,5.3-3.2,8.1c-0.4,1.1,0.2,2.3,1.3,2.7c0.1,0,0.2,0.1,0.3,0.1
		c2.8,1.2,5.5,2.2,8.3,3.1c1,0.4,2.6-0.6,3.2-1.8c0.2-0.4,0.2-0.8,0.4-1.2l9.5,4.1c2.4,1,4.7,2.2,7.1,3.4c1.3,0.7,2.9,0.7,4.1-0.2
		c1.1-0.8,1.6-2.2,1.2-3.5c-0.4-1.8-1.8-2.2-3.2-2.8C34.7,23.2,29.2,21.4,23.5,19.4z"/>
	<path class="st1" d="M16.6,43.9h14.6c0.9,0,1.7,0,1.9-1.1c0-1.1-0.7-1.3-1.5-1.5c-1.1-0.2-1.9-1.1-1.9-2.2
		c-0.1-1.2-1.1-2.2-2.4-2.2c-0.1,0-0.1,0-0.2,0H6.4c-1.7,0-2.4,0.6-2.6,2.1c-0.1,1.1-0.9,2-1.9,2.2c-0.9,0.2-1.7,0.4-1.3,1.5
		c0.4,0.6,1,1,1.7,1.1C6.8,44.2,11.7,43.9,16.6,43.9z"/>
	<path class="st1" d="M12.3,8c0.4,0.4,0.8,1.2,1.4,1.4c3.8,1.6,7.3,3,11,4.3c1,0.6,2.2,0.2,2.8-0.8c0.1-0.1,0.1-0.3,0.2-0.4
		c0.4-1,0-2.2-1-2.6c-0.1-0.1-0.2-0.1-0.4-0.1c-3.8-1.4-7.5-3-11-4.3C13.6,5.1,12.3,6,12.3,8z"/>
	<path class="st1" d="M4.8,27.3c0.4,0.4,0.8,1.2,1.4,1.4c3.7,1.6,7.5,3,11.2,4.5c1.1,0.4,2.3-0.1,2.8-1.2c0.4-1.1-0.1-2.3-1.1-2.7
		c-0.1,0-0.2-0.1-0.2-0.1c-3.6-1.4-7.3-3-10.8-4.3c-1.2-0.5-2.5,0.1-3,1.3C4.8,26.6,4.7,26.9,4.8,27.3z"/>
	<rect class="st2" width="45" height="45"/>
</g>
</svg>
