<?xml version="1.0" encoding="utf-8"?>
<!-- Generator: Adobe Illustrator 25.3.0, SVG Export Plug-In . SVG Version: 6.00 Build 0)  -->
<svg version="1.1" id="Layer_1" xmlns="http://www.w3.org/2000/svg" xmlns:xlink="http://www.w3.org/1999/xlink" x="0px" y="0px"
	 viewBox="0 0 45 45" style="enable-background:new 0 0 45 45;" xml:space="preserve">
<style type="text/css">
	.st0{fill:#2A3747;}
	.st1{fill:#333333;}
	.st2{fill:none;}
</style>
<g id="Layer_2_1_">
	<path class="st0" d="M19.9,33.1l5.8,1c-0.3,0.3-0.8,0.7-1.3,1.1c-2.3,2.1-4.4,4.4-6.8,6.4c-3.9,3.2-9.6,2.6-12.8-1.3
		c-0.9-1.1-1.5-2.4-1.8-3.7c-0.8-2.9-0.1-5.9,1.9-8.1c3.1-3.4,6.4-6.6,9.8-9.7c3.6-2.9,8.8-2.8,12.2,0.3c1.5,1.5,1.1,3.7-0.9,4.2
		c-0.8,0.1-1.6-0.1-2.2-0.5c-2.3-1.7-4.6-1.6-6.7,0.5c-2.7,2.6-5.3,5.2-7.9,7.8c-1.3,1.1-1.8,2.9-1.4,4.5c0.6,2.2,2.8,3.6,5.1,3.1
		c0.5-0.1,1-0.4,1.5-0.7c1.3-0.9,2.4-2,3.5-3.1c0.7-0.7,1.3-1.4,1.9-2.1L19.9,33.1z"/>
	<path class="st1" d="M19.1,13.8c2.7-2.5,5.2-5.4,8.2-7.7c4-3.1,9.7-2.4,12.7,1.6c0.8,1,1.3,2.1,1.6,3.3c0.9,2.8,0.2,5.9-1.7,8.1
		c-3.2,3.5-6.6,6.9-10.1,10.1c-3.2,2.9-8.6,2.6-11.8-0.1c-1.7-1.4-1.6-3.5,0.3-4.4c0.6-0.2,1.2-0.2,1.8,0c0.6,0.3,1.2,0.6,1.7,1
		c1.6,1.1,3.8,0.8,5.2-0.5c2.9-2.8,5.7-5.6,8.5-8.5c1.3-1.2,1.8-3,1.2-4.7c-0.7-2.2-3.1-3.3-5.2-2.6c-0.4,0.1-0.8,0.3-1.2,0.6
		c-1.7,1.3-3.3,2.8-4.8,4.3c-0.5,0.6-1.2,0.7-1.9,0.4C22.3,14.3,20.7,14,19.1,13.8z"/>
	<rect class="st2" width="45" height="45"/>
</g>
</svg>
