<?xml version="1.0" encoding="utf-8"?>
<!-- Generator: Adobe Illustrator 25.3.0, SVG Export Plug-In . SVG Version: 6.00 Build 0)  -->
<svg version="1.1" id="Layer_1" xmlns="http://www.w3.org/2000/svg" xmlns:xlink="http://www.w3.org/1999/xlink" x="0px" y="0px"
	 viewBox="0 0 45 45" style="enable-background:new 0 0 45 45;" xml:space="preserve">
<style type="text/css">
	.st0{fill:#2A3747;}
	.st1{fill:none;}
</style>
<g id="Layer_2_1_">
	<path class="st0" d="M2.6,17.3L22,4.8c0.6-0.4,1.5-0.4,2.1,0l7,4.5v-3c0-1.2,0.8-2.1,2-2.2h1.8c1.2,0.1,2,1,2,2.2V13l6.6,4.3
		c0.9,0.6,1.1,1.7,0.6,2.6L42.4,23L38,19.7l-0.2,25H26.9l1.1-6.2l-2.9-4.4l2.6-5.7L18.6,19L22,29.6l-2.1,5l2.1,4l-2.3,6H7.9
		l0.1-23.8l-4.2,2.7L2,19.9C1.5,19,1.8,17.9,2.6,17.3z"/>
	<rect class="st1" width="45" height="45"/>
</g>
</svg>
