<svg xmlns="http://www.w3.org/2000/svg" viewBox="0 0 32.28 32.28"><defs><style>.cls-1{fill:none;}.cls-2{fill:#00810c;}.cls-3{fill:#1f191a;}</style></defs><g id="Layer_2" data-name="Layer 2"><rect class="cls-1" width="32.28" height="32.28"/><path class="cls-2" d="M16.07,28.26A12.12,12.12,0,1,1,16.21,4a12.12,12.12,0,1,1-.14,24.23Zm-2-9.45c-1.07-1.15-2-2.16-3-3.2s-1.46-.44-2.16.23S8,17.11,8.86,17.9q2.19,2.07,4.26,4.26c.8.85,1.4.74,2.17-.05,2.62-2.68,5.27-5.34,8-7.95.82-.8,1-1.39.08-2.26s-1.47-1-2.37,0C18.8,14.14,16.55,16.33,14.09,18.81Z"/><path class="cls-3" d="M16.17,28.48h-.1A12.24,12.24,0,0,1,3.79,16.07,12.26,12.26,0,0,1,16.11,3.81h.1a12.22,12.22,0,0,1,12.28,12.4A12.26,12.26,0,0,1,16.17,28.48ZM16.11,4.24A11.83,11.83,0,0,0,4.23,16.08,11.79,11.79,0,0,0,16.08,28h.09A11.83,11.83,0,0,0,28.06,16.21a11.81,11.81,0,0,0-11.85-12ZM14.16,23h0A1.75,1.75,0,0,1,13,22.31c-1.34-1.42-2.77-2.84-4.25-4.25A1.57,1.57,0,0,1,8.11,17a1.91,1.91,0,0,1,.71-1.27,2.23,2.23,0,0,1,1.39-.82h0a1.52,1.52,0,0,1,1,.61c.64.72,1.3,1.42,2,2.17l.81.86,2-2c1.65-1.65,3.21-3.21,4.73-4.82A1.92,1.92,0,0,1,22.08,11h0a2,2,0,0,1,1.37.76A1.82,1.82,0,0,1,24.14,13a1.89,1.89,0,0,1-.74,1.32c-2.52,2.45-5.12,5-8,8A1.83,1.83,0,0,1,14.16,23ZM10.21,15.3c-.34,0-.68.3-1.09.7s-.58.68-.57.95a1.2,1.2,0,0,0,.46.8c1.49,1.4,2.92,2.84,4.27,4.26a1.28,1.28,0,0,0,.88.52,1.48,1.48,0,0,0,1-.57c2.84-2.9,5.44-5.51,8-8a1.63,1.63,0,0,0,.62-1,1.45,1.45,0,0,0-.54-.94,1.66,1.66,0,0,0-1.07-.63h0a1.48,1.48,0,0,0-1,.59c-1.52,1.61-3.09,3.17-4.74,4.83L14.25,19l-.16.17L13.93,19l-1-1c-.7-.75-1.36-1.46-2-2.18a1.14,1.14,0,0,0-.74-.46Z"/></g></svg>