<svg xmlns="http://www.w3.org/2000/svg" viewBox="0 0 32.28 32.28"><defs><style>.cls-1{fill:none;}.cls-2{fill:#fa7822;}.cls-3{fill:#1f191a;}</style></defs><g id="Layer_2" data-name="Layer 2"><rect class="cls-1" width="32.28" height="32.28"/><path class="cls-2" d="M16.12,28.32a12.12,12.12,0,1,1,.06-24.23,12,12,0,0,1,12.1,12.15A12,12,0,0,1,16.12,28.32ZM16,18.22h4.83c2.88,0,2.28-.08,2.41-2.41.08-1.31-.42-1.66-1.64-1.64-3.31.06-6.62,0-9.94,0-3.1,0-2.56-.13-2.66,2.68,0,1.06.4,1.38,1.38,1.36C12.28,18.19,14.15,18.22,16,18.22Z"/><path class="cls-3" d="M16.16,28.54h0A12.23,12.23,0,0,1,3.79,16.17,12.26,12.26,0,0,1,16.13,3.87h.05A12.22,12.22,0,0,1,28.5,16.24a12.26,12.26,0,0,1-12.34,12.3Zm0-24.23a11.9,11.9,0,0,0,0,23.8h0A11.83,11.83,0,0,0,28.07,16.24,11.79,11.79,0,0,0,16.18,4.31ZM10.32,18.45a1.52,1.52,0,0,1-1.16-.37,1.54,1.54,0,0,1-.35-1.22c0-.41,0-.76,0-1.06,0-.85,0-1.32.37-1.58s.88-.24,2.08-.24h3.24c2.33,0,4.74,0,7.1,0a1.87,1.87,0,0,1,1.51.42,1.8,1.8,0,0,1,.36,1.44c0,.4,0,.73,0,1,0,.63,0,1-.26,1.28s-.95.34-2.34.33h-6.4c-1.33,0-2.7,0-4.05,0Zm.64-4a3.36,3.36,0,0,0-1.5.16c-.18.13-.19.47-.19,1.23,0,.3,0,.66,0,1.08a1.21,1.21,0,0,0,.22.9,1.34,1.34,0,0,0,.93.23c1.36,0,2.73,0,4.06,0h3.12c1.1,0,2.19,0,3.28,0s1.83,0,2-.2.14-.45.14-1c0-.28,0-.62,0-1a1.44,1.44,0,0,0-.23-1.11,1.66,1.66,0,0,0-1.19-.29c-2.37,0-4.78,0-7.11,0H11Z"/></g></svg>