<svg id="Layer_1" data-name="Layer 1" xmlns="http://www.w3.org/2000/svg" viewBox="0 0 49.2 45"><defs><style>.cls-1{fill:#2a3747;}.cls-2{fill:#333;}.cls-3{fill:none;}</style></defs><path class="cls-1" d="M19.6,35.24a7.87,7.87,0,0,1,4.6-1.9V18a22.78,22.78,0,0,0-15.4,6.4l10.8,10.8"/><path class="cls-1" d="M25,18v15.3a7.87,7.87,0,0,1,4.6,1.9l10.8-10.8A22.59,22.59,0,0,0,25,18"/><path class="cls-1" d="M30.1,35.74a7.87,7.87,0,0,1,1.9,4.6H47.3A22.41,22.41,0,0,0,41,24.94L30.1,35.74"/><path class="cls-2" d="M11.82,37.08l.45-1.7,6.29,1.11a6.46,6.46,0,0,1,.54-.75L8.3,24.94a22.78,22.78,0,0,0-6.4,15.4H17.2a5.44,5.44,0,0,1,.2-1.14Z"/><rect class="cls-3" width="49.2" height="45"/><path class="cls-1" d="M22.71,37.84,12.8,36.06l-.18.79,9.48,3.42a2.66,2.66,0,1,0,2-3.2,4.49,4.49,0,0,0-1.38.77"/></svg>