<?xml version="1.0" encoding="utf-8"?>
<!-- Generator: Adobe Illustrator 25.3.0, SVG Export Plug-In . SVG Version: 6.00 Build 0)  -->
<svg version="1.1" id="Layer_1" xmlns="http://www.w3.org/2000/svg" xmlns:xlink="http://www.w3.org/1999/xlink" x="0px" y="0px"
	 viewBox="0 0 45 45" style="enable-background:new 0 0 45 45;" xml:space="preserve">
<style type="text/css">
	.st0{fill:#2A3747;}
	.st1{fill:#333333;}
	.st2{fill:none;}
</style>
<g id="Layer_2_1_">
	<path class="st0" d="M16.4,9.3c-2.3,0.8-4.6,1.2-6.9,1.5V17c0,8.1,2.4,14.4,7.1,18.8c1.4,1.3,3,2.4,4.8,3.3
		c0.4,0.2,0.8,0.4,1.1,0.5c0.4-0.2,0.8-0.3,1.2-0.5c1.7-0.9,3.3-2,4.8-3.3c4.6-4.4,7-10.6,7-18.7v-6.2c-2.4-0.2-4.7-0.7-7-1.5
		c-2.1-0.7-4.1-1.6-6-2.6C20.5,7.8,18.5,8.6,16.4,9.3"/>
	<path class="st1" d="M38.7,6.2c-6.7,0-10.7-2-14.3-3.8C23.9,2.2,23.5,2,23,1.8c-0.4-0.2-0.8-0.2-1.2,0l-1.4,0.7
		c-3.6,1.8-7.6,3.8-14.3,3.8c-0.8,0-1.4,0.6-1.4,1.4v0V17c-0.1,4.8,0.8,9.5,2.7,13.9c1.4,3.2,3.4,6,5.9,8.4c2.5,2.4,5.5,4.1,8.7,5.2
		c0.1,0,0.2,0,0.4,0c0.1,0,0.2,0,0.4,0c3.3-1,6.3-2.8,8.8-5.2c2.5-2.4,4.5-5.2,5.9-8.4c1.8-4.4,2.8-9.1,2.7-13.9V7.6
		C40.1,6.8,39.4,6.2,38.7,6.2L38.7,6.2 M37.2,17c0,8.6-2.5,15.3-7.6,20.1c-1.6,1.5-3.3,2.7-5.2,3.6c-0.6,0.3-1.3,0.6-2,0.8
		c-0.7-0.2-1.3-0.5-1.9-0.8c-1.9-0.9-3.7-2.1-5.2-3.6C10.1,32.4,7.5,25.6,7.5,17V9c5-0.2,9.8-1.6,14.1-4c0.2-0.1,0.5-0.2,0.7-0.4
		L23.1,5c4.3,2.4,9.2,3.8,14.1,4V17z"/>
	<rect class="st2" width="45" height="45"/>
</g>
</svg>
